<svg width="47" height="44" viewBox="0 0 47 44" fill="none" xmlns="http://www.w3.org/2000/svg">
<ellipse cx="23.5" cy="22" rx="23.5" ry="22" fill="url(#paint0_linear_5604_3)"/>
<path d="M30.973 28.1049V3.65188C30.973 3.27788 30.9848 2.87088 31.0082 2.43088C31.0553 1.99088 31.1023 1.53988 31.1493 1.07788L9.57625 28.1049H30.973ZM50.9423 28.1049V29.8209C50.9423 30.0629 50.86 30.2609 50.6955 30.4149C50.5545 30.5469 50.3195 30.6129 49.9905 30.6129H33.934V44.0109H30.973V30.6129H7.39075C7.03825 30.6129 6.768 30.5469 6.58 30.4149C6.392 30.2609 6.26275 30.0629 6.19225 29.8209L5.875 28.2699L30.9377 -2.75012H33.934V28.1049H50.9423Z" fill="white"/>
<defs>
<linearGradient id="paint0_linear_5604_3" x1="54.05" y1="-13.2" x2="17.1277" y2="46.2454" gradientUnits="userSpaceOnUse">
<stop stop-color="#FF00AA"/>
<stop offset="1" stop-color="#8912DE"/>
</linearGradient>
</defs>
</svg>
